<svg width="47" height="35" viewBox="0 0 47 35" fill="none" xmlns="http://www.w3.org/2000/svg">
<path d="M46.7242 15.2735C46.7242 15.2735 44.65 13.3145 40.3863 14.0059C39.9254 10.6641 36.3531 8.70512 36.3531 8.70512C36.3531 8.70512 33.0113 12.7383 35.4313 17.2325C34.7398 17.5782 33.5875 18.0391 31.859 18.0391H0.169537C-0.406635 20.2286 -0.406635 34.7481 15.4957 34.7481C26.9039 34.7481 35.4313 29.4473 39.4645 19.7676C45.4566 20.2286 46.7242 15.2735 46.7242 15.2735Z" fill="#066DA5"/>
<path d="M3.67975 11.0735H8.42451V18.5H3.67975V11.0735Z" fill="#066DA5"/>
<path d="M26.3721 11.0735H31.1168V18.5H26.3721V11.0735Z" fill="#066DA5"/>
<path d="M9.45598 5.91613H14.2007V18.0875H9.45598V5.91613Z" fill="#066DA5"/>
<path d="M15.0259 5.91613H19.7707V18.0875H15.0259V5.91613Z" fill="#066DA5"/>
<path d="M20.8021 0.55249H25.5469V18.0875H20.8021V0.55249Z" fill="#066DA5"/>
</svg>
