<svg width="47" height="31" viewBox="0 0 47 31" fill="none" xmlns="http://www.w3.org/2000/svg">
<path d="M45.5207 4.70908L47 0.877531L46.9357 0.640165L32.3002 4.49621C33.8606 2.23894 33.3247 0.428833 33.3247 0.428833C33.3247 0.428833 28.6508 3.41352 25.1164 3.33542C21.5819 3.25732 20.4426 2.31398 15.023 4.04292C9.60337 5.77033 8.07197 11.0735 6.50077 12.2129C4.92956 13.3523 0 17.0628 0 17.0628L0.0107198 17.1287L4.45482 15.7137C4.45482 15.7137 3.23583 16.8622 0.646248 20.3523C0.646248 20.3523 0.601838 20.3109 0.525268 20.2405L0.529862 20.265C0.529862 20.265 2.61103 23.4457 4.65391 22.8576C4.85911 22.7979 5.09035 22.6999 5.34303 22.5713C6.16539 23.0291 7.2389 23.4794 8.4242 23.6034C8.4242 23.6034 7.62175 22.6708 6.95253 21.6095C7.13323 21.4931 7.31853 21.3722 7.50689 21.2497L7.4196 21.3109L9.11179 21.9327L8.92496 20.3415C8.93109 20.3385 8.93568 20.3339 8.94181 20.3308L10.6049 20.9418L10.3982 19.4947C10.6095 19.3844 10.8193 19.2803 11.0291 19.1838L12.7626 12.6264L19.9311 7.73664L19.3614 9.17003C17.9081 12.7443 15.1792 13.5881 15.1792 13.5881L14.0398 14.0199C13.193 15.0215 12.8361 15.268 12.5452 18.6294C13.2282 18.4579 13.8806 18.4166 14.4717 18.5758C17.5345 19.4013 18.5957 23.0919 17.7703 24.1134C17.5636 24.3691 17.072 24.8056 16.4518 25.3186H15.2083L15.1914 26.3262C15.1485 26.3599 15.1057 26.3921 15.0643 26.4258H13.7994L13.7841 27.4089C13.6723 27.4947 13.5605 27.5774 13.4533 27.6585C12.2649 27.683 10.7596 26.6463 10.7596 26.6463C10.7596 27.5896 11.5452 29.0414 11.5452 29.0414C11.5452 29.0414 11.5972 29.0169 11.6845 28.974C11.608 29.0307 11.5651 29.0613 11.5651 29.0613C11.5651 29.0613 14.7458 31.1823 16.7489 30.3967C18.5299 29.6984 23.1409 26.0628 27.121 24.3415L39.1654 21.1685L40.7534 17.0536L31.5743 19.4717V15.7765L42.3446 12.9388L43.9326 8.82393L31.5773 12.0797V8.38289L45.5207 4.70908Z" fill="white"/>
</svg>
