<svg width="41" height="41" viewBox="0 0 41 41" fill="none" xmlns="http://www.w3.org/2000/svg">
<g clip-path="url(#clip0_3406_690)">
<path d="M39.9561 18.6993L22.3014 1.04558C21.2854 0.0289131 19.6364 0.0289131 18.6188 1.04558L14.9535 4.71188L19.6038 9.36218C20.6848 8.99734 21.9238 9.24206 22.7851 10.1034C23.6509 10.9701 23.894 12.2197 23.5196 13.3043L28.0014 17.7867C29.0856 17.4129 30.3371 17.6544 31.2026 18.5218C32.4134 19.7317 32.4134 21.6929 31.2026 22.9034C29.9918 24.1142 28.0312 24.1142 26.8198 22.9034C25.9094 21.9924 25.6843 20.6551 26.1455 19.5334L21.9661 15.3536L21.9654 26.3535C22.2607 26.4992 22.5391 26.694 22.7851 26.939C23.9956 28.1488 23.9956 30.1095 22.7851 31.3218C21.5746 32.5317 19.6127 32.5317 18.4035 31.3218C17.1934 30.1098 17.0941 28.1491 18.3039 26.939C18.6031 26.6402 18.8981 26.4143 19.2184 26.2631V15.1614C18.8981 15.0102 18.6034 14.786 18.3036 14.4853C17.3872 13.5692 17.2158 12.2238 17.686 11.0976L13.127 6.513L1.03396 18.6176C0.0169704 19.6352 0.0233767 21.2842 1.04037 22.3012L18.6979 39.9549C19.7143 40.9716 21.3645 40.9716 22.3825 39.9549L39.9548 22.3832C40.9718 21.3659 40.9728 19.716 39.9561 18.6993Z" fill="#F34F29"/>
</g>
<defs>
<clipPath id="clip0_3406_690">
<rect width="41" height="41" fill="white"/>
</clipPath>
</defs>
</svg>
