<svg width="59" height="59" viewBox="0 0 59 59" fill="none" xmlns="http://www.w3.org/2000/svg">
<rect width="59" height="59" rx="5" fill="#6F2200"/>
<g clip-path="url(#clip0_1253_74)">
<path d="M48.9819 27.2432L31.7578 10.02C30.7666 9.02815 29.1578 9.02815 28.165 10.02L24.5891 13.5969L29.126 18.1338C30.1807 17.7778 31.3894 18.0166 32.2297 18.8569C33.0744 19.7025 33.3116 20.9216 32.9463 21.9797L37.3188 26.3528C38.3766 25.9882 39.5975 26.2238 40.4419 27.07C41.6232 28.2503 41.6232 30.1638 40.4419 31.3447C39.2607 32.526 37.3478 32.526 36.166 31.3447C35.2778 30.456 35.0582 29.1513 35.5082 28.0569L31.4307 23.9791L31.43 34.7107C31.7182 34.8528 31.9897 35.0428 32.2297 35.2819C33.4107 36.4622 33.4107 38.375 32.2297 39.5578C31.0488 40.7382 29.1347 40.7382 27.955 39.5578C26.7744 38.3753 26.6775 36.4625 27.8578 35.2819C28.1497 34.9903 28.4375 34.77 28.75 34.6225V23.7916C28.4375 23.6441 28.15 23.4253 27.8575 23.1319C26.9635 22.2382 26.7963 20.9257 27.255 19.8269L22.8072 15.3541L11.0091 27.1635C10.0169 28.1563 10.0232 29.765 11.0153 30.7572L28.2422 47.9803C29.2338 48.9722 30.8438 48.9722 31.8369 47.9803L48.9807 30.8372C49.9728 29.8447 49.9738 28.235 48.9819 27.2432Z" fill="#F34F29"/>
</g>
<defs>
<clipPath id="clip0_1253_74">
<rect width="40" height="40" fill="white" transform="translate(10 9)"/>
</clipPath>
</defs>
</svg>
