<svg width="40" height="40" viewBox="0 0 40 40" fill="none" xmlns="http://www.w3.org/2000/svg">
<path fill-rule="evenodd" clip-rule="evenodd" d="M23.5611 0C23.2861 0.00312205 23.0136 0.0513851 22.7543 0.142857C25.0589 1.65429 22.3537 3.84857 23.6126 5.71429C23.5246 5.08976 23.6238 4.45318 23.8977 3.88491C24.1717 3.31665 24.6081 2.84219 25.1519 2.52143C25.5596 2.18286 25.82 2.06143 25.7327 1.50143C25.5954 0.584286 24.3708 0 23.5611 0ZM26.8514 0.591429C26.5338 2.19571 26.1361 2.25429 24.9588 3.28714C24.4991 3.64831 24.1746 4.15352 24.0376 4.72134C23.9006 5.28917 23.959 5.88653 24.2034 6.41714C19.3396 4.53143 13.1052 3.39143 8.53464 6.65429C6.89094 7.82714 5.88669 9.51143 3.8596 10.1986C2.54922 10.6457 1.26173 10.5143 0.443455 11.8114C0.143143 12.186 -0.0137362 12.6551 0.000944392 13.1347C0.015625 13.6143 0.200906 14.073 0.523565 14.4286C0.766759 14.6786 1.23884 14.8386 1.43339 15.0929C1.54641 15.2357 1.54355 15.3786 1.65084 15.5686C1.84 16.0116 2.11408 16.4134 2.45767 16.7514C2.66653 16.9243 3.39038 17.0929 3.51341 17.2771C3.66648 17.5071 3.26593 18.42 3.60211 18.5629C3.82956 18.6671 4.49191 17.5 4.55628 17.3971C4.42467 18.3157 4.25157 19.9457 5.28586 18.5886C5.77654 17.9443 5.80658 17.7314 6.63201 17.5886C8.26108 17.3099 9.93031 17.3715 11.5343 17.7695C13.1384 18.1674 14.6424 18.8931 15.9515 19.9006C17.2606 20.9082 18.3464 22.1758 19.1403 23.6234C19.9342 25.071 20.419 26.6673 20.5641 28.3114C20.4096 27.5971 19.4755 26.4543 18.6057 26.7257C18.2352 26.84 18.0979 27.4786 17.8547 27.8486C17.5476 28.318 17.1687 28.7365 16.7317 29.0886C16.8063 28.396 16.7715 27.6961 16.6287 27.0143C16.3683 28.0829 15.8462 29.8557 14.5315 29.5686C14.0935 29.5018 13.6832 29.3134 13.3473 29.025C13.0114 28.7365 12.7634 28.3596 12.6317 27.9371C12.4615 26.8514 13.6102 25.5786 11.7634 25.4886C8.05826 25.3071 8.91516 30.7486 11.1025 32.1671C10.5998 32.2227 10.1094 32.3592 9.65046 32.5714C11.0388 33.3771 12.6032 33.832 14.2076 33.8966C15.812 33.9612 17.408 33.6335 18.8568 32.9421C20.3055 32.2506 21.5633 31.2164 22.5208 29.9291C23.4783 28.6418 24.1065 27.1406 24.3508 25.5557C24.8603 27.8741 24.533 30.2978 23.4266 32.3986C22.9636 33.2768 22.3704 34.0801 21.6671 34.7814C21.2379 35.21 20.3882 35.6814 20.1092 36.1257C21.8454 35.8965 23.542 35.4312 25.1519 34.7429C23.4855 37.0104 21.2707 38.8191 18.7144 40C21.4593 39.806 24.1127 38.9327 26.4352 37.4591C28.7578 35.9854 30.6766 33.9576 32.0185 31.5586C31.5909 33.958 30.641 36.2344 29.2361 38.2271C31.1258 36.9638 32.7334 35.324 33.9582 33.4106C35.1829 31.4972 35.9983 29.3516 36.3531 27.1086C36.7047 28.7506 36.8055 30.4364 36.6521 32.1086C38.2048 29.9549 39.254 27.4807 39.7222 24.8684C40.1903 22.2561 40.0656 19.5721 39.3572 17.0143C38.8151 15.0261 38.0021 13.1216 36.941 11.3543C36.5304 10.6656 36.0809 10.0007 35.5949 9.36286C35.4046 9.11571 34.3875 8.21143 34.3875 7.93429C34.3789 7.96191 34.3718 7.96191 34.3661 7.93429C34.3661 12.6 29.3591 15.5214 25.1662 14.31C26.7893 14.1828 28.3204 13.5064 29.5065 12.3926C30.6926 11.2788 31.4626 9.79429 31.6895 8.18429C31.8809 6.55623 31.5043 4.91206 30.6232 3.52895C29.7422 2.14584 28.4091 1.10837 26.8514 0.591429Z" fill="url(#paint0_linear_3538_150)"/>
<path d="M35.5999 22.8851C36.4089 23.0675 37.1445 23.4762 37.7149 24.0603C38.0267 24.3762 38.2986 24.7269 38.5249 25.1049C38.5249 25.1049 37.0249 26.1059 36.1699 26.6427C36.0381 26.569 35.9333 26.4574 35.8699 26.3236C35.7074 26.0516 35.4764 25.8238 35.1984 25.6615C34.9204 25.4991 34.6044 25.4075 34.2799 25.395C34.1026 25.3565 33.9192 25.3523 33.7402 25.3825C33.5612 25.4128 33.3901 25.4769 33.2368 25.5713C33.0835 25.6657 32.9509 25.7884 32.8468 25.9324C32.7427 26.0764 32.6689 26.239 32.6299 26.4106C32.6062 26.5115 32.5952 26.6147 32.5969 26.7182C32.5896 26.9306 32.6414 27.1411 32.7469 27.3275C33.2179 27.9717 33.9172 28.4261 34.7119 28.6042C37.1419 29.6198 38.1769 30.2872 38.8219 31.2302C39.1849 31.8298 39.408 32.4989 39.4753 33.1906C39.5427 33.8823 39.4528 34.5799 39.2119 35.2345C38.8968 35.9699 38.3791 36.6077 37.7153 37.0784C37.0515 37.5491 36.2669 37.8346 35.4469 37.904C34.5903 38.0085 33.7235 38.0085 32.8669 37.904C31.5538 37.696 30.3445 37.0857 29.4169 36.163C29.0652 35.7822 28.7676 35.3577 28.5319 34.9008L28.8469 34.7122L30.1069 34.0158L31.0819 33.4645L31.2919 33.7547C31.6352 34.2308 32.0739 34.6353 32.5819 34.9443C33.0933 35.2159 33.6726 35.3448 34.2553 35.3166C34.8379 35.2884 35.4011 35.1043 35.8819 34.7847C36.1239 34.5496 36.2753 34.2413 36.3107 33.9113C36.3462 33.5813 36.2637 33.2495 36.0769 32.9712C35.4227 32.3602 34.6248 31.9121 33.7519 31.6655C32.5153 31.2541 31.3954 30.5685 30.4819 29.6633C30.0523 29.1888 29.7349 28.6293 29.5519 28.0239C29.4364 27.332 29.4364 26.6266 29.5519 25.9347C29.7317 25.1326 30.1619 24.4032 30.7843 23.8453C31.4067 23.2874 32.1913 22.9279 33.0319 22.8155C33.8867 22.7142 34.7523 22.7377 35.5999 22.8851ZM27.6349 24.2489V25.5981H23.2249V37.727H20.1049V25.5981H15.6949V24.2779C15.6694 23.8285 15.6694 23.3781 15.6949 22.9286H27.6949V24.2634L27.6349 24.2489Z" fill="#007ACC"/>
<defs>
<linearGradient id="paint0_linear_3538_150" x1="19.9976" y1="40" x2="19.9976" y2="0" gradientUnits="userSpaceOnUse">
<stop stop-color="#FFB199"/>
<stop offset="1" stop-color="#FF0844"/>
</linearGradient>
</defs>
</svg>
