<svg width="44" height="44" viewBox="0 0 44 44" fill="none" xmlns="http://www.w3.org/2000/svg">
<g clip-path="url(#clip0_3403_516)">
<path d="M20.5605 0.0344126C20.466 0.0430055 20.1652 0.0730807 19.8945 0.094563C13.6518 0.657399 7.80432 4.02582 4.10077 9.20305C2.03848 12.0817 0.719463 15.347 0.221074 18.8056C0.0449198 20.0129 0.0234375 20.3695 0.0234375 22.0065C0.0234375 23.6434 0.0449198 24 0.221074 25.2073C1.41549 33.4608 7.28874 40.3953 15.2544 42.9646C16.6808 43.4243 18.1846 43.738 19.8945 43.927C20.5605 44 23.4391 44 24.1051 43.927C27.0567 43.6005 29.5573 42.8701 32.0234 41.6112C32.4015 41.4179 32.4746 41.3663 32.423 41.3233C32.3886 41.2976 30.7775 39.1365 28.8441 36.5242L25.3296 31.7766L20.9257 25.2589C18.5025 21.6757 16.5089 18.7455 16.4918 18.7455C16.4746 18.7412 16.4574 21.637 16.4488 25.173C16.4359 31.3642 16.4316 31.6134 16.3543 31.7594C16.2426 31.97 16.1566 32.0559 15.9762 32.1504C15.8387 32.2192 15.7184 32.232 15.0696 32.232H14.3263L14.1287 32.1074C13.9998 32.0258 13.9053 31.9184 13.8408 31.7938L13.7506 31.6005L13.7592 22.9861L13.7721 14.3674L13.9053 14.1998C13.974 14.1096 14.1201 13.9936 14.2232 13.9377C14.3994 13.8518 14.4681 13.8432 15.2114 13.8432C16.0879 13.8432 16.234 13.8776 16.4617 14.1268C16.5261 14.1955 18.9107 17.7874 21.7635 22.1139C24.6163 26.4404 28.5175 32.3481 30.4338 35.2482L33.9139 40.5199L34.09 40.4039C35.6496 39.3899 37.2995 37.9463 38.6056 36.4426C41.3854 33.2503 43.177 29.3577 43.7785 25.2073C43.9547 24 43.9762 23.6434 43.9762 22.0065C43.9762 20.3695 43.9547 20.0129 43.7785 18.8056C42.5841 10.5521 36.7109 3.61766 28.7452 1.04838C27.3403 0.592952 25.8451 0.279311 24.1695 0.0902665C23.7571 0.0473019 20.9171 4.09428e-05 20.5605 0.0344126ZM29.5573 13.3276C29.7635 13.4308 29.9311 13.6284 29.9912 13.8346C30.0256 13.9463 30.0342 16.3352 30.0256 21.7186L30.0127 29.4436L28.6507 27.3556L27.2844 25.2675V19.652C27.2844 16.0215 27.3016 13.9807 27.3274 13.8819C27.3962 13.6413 27.5465 13.4522 27.7528 13.3405C27.9289 13.2503 27.9934 13.2417 28.6679 13.2417C29.3038 13.2417 29.4155 13.2503 29.5573 13.3276Z" fill="white"/>
<path d="M33.6992 40.6144C33.5488 40.7089 33.5016 40.7734 33.6347 40.7003C33.7293 40.6445 33.8839 40.5285 33.8582 40.5242C33.8453 40.5242 33.7722 40.5671 33.6992 40.6144ZM33.4027 40.8077C33.3254 40.8679 33.3254 40.8722 33.4199 40.8249C33.4715 40.7991 33.5144 40.7691 33.5144 40.7605C33.5144 40.7261 33.493 40.7347 33.4027 40.8077ZM33.1879 40.9366C33.1106 40.9968 33.1106 41.0011 33.2051 40.9538C33.2567 40.928 33.2996 40.898 33.2996 40.8894C33.2996 40.855 33.2781 40.8636 33.1879 40.9366ZM32.9731 41.0655C32.8958 41.1257 32.8958 41.13 32.9903 41.0827C33.0418 41.0569 33.0848 41.0269 33.0848 41.0183C33.0848 40.9839 33.0633 40.9925 32.9731 41.0655ZM32.6466 41.2374C32.4833 41.3233 32.4919 41.3577 32.6552 41.276C32.7282 41.2374 32.784 41.1987 32.784 41.1901C32.784 41.16 32.7797 41.1643 32.6466 41.2374Z" fill="black"/>
</g>
<defs>
<clipPath id="clip0_3403_516">
<rect width="44" height="44" fill="white"/>
</clipPath>
</defs>
</svg>
