<svg width="59" height="59" viewBox="0 0 59 59" fill="none" xmlns="http://www.w3.org/2000/svg">
<rect width="59" height="59" rx="5" fill="#E3E3E3"/>
<g clip-path="url(#clip0_1253_81)">
<path d="M28.5607 7.03435C28.4662 7.04294 28.1655 7.07302 27.8948 7.0945C21.652 7.65734 15.8046 11.0258 12.101 16.203C10.0387 19.0816 8.71971 22.3469 8.22132 25.8056C8.04516 27.0129 8.02368 27.3695 8.02368 29.0064C8.02368 30.6434 8.04516 31 8.22132 32.2073C9.41573 40.4608 15.289 47.3953 23.2546 49.9645C24.681 50.4243 26.1848 50.7379 27.8948 50.9269C28.5607 51 31.4394 51 32.1053 50.9269C35.057 50.6004 37.5575 49.87 40.0237 48.6111C40.4018 48.4178 40.4748 48.3662 40.4233 48.3233C40.3889 48.2975 38.7777 46.1364 36.8443 43.5241L33.3298 38.7766L28.9259 32.2588C26.5027 28.6756 24.5092 25.7454 24.492 25.7454C24.4748 25.7411 24.4576 28.6369 24.449 32.1729C24.4361 38.3641 24.4318 38.6133 24.3545 38.7594C24.2428 38.9699 24.1569 39.0558 23.9764 39.1504C23.8389 39.2191 23.7186 39.232 23.0699 39.232H22.3266L22.1289 39.1074C22.0001 39.0258 21.9055 38.9183 21.8411 38.7937L21.7509 38.6004L21.7595 29.986L21.7723 21.3673L21.9055 21.1998C21.9743 21.1095 22.1204 20.9935 22.2235 20.9377C22.3996 20.8518 22.4684 20.8432 23.2117 20.8432C24.0881 20.8432 24.2342 20.8775 24.4619 21.1267C24.5264 21.1955 26.9109 24.7873 29.7637 29.1138C32.6166 33.4404 36.5178 39.348 38.434 42.2481L41.9141 47.5199L42.0903 47.4038C43.6499 46.3899 45.2997 44.9463 46.6059 43.4425C49.3857 40.2502 51.1773 36.3577 51.7788 32.2073C51.9549 31 51.9764 30.6434 51.9764 29.0064C51.9764 27.3695 51.9549 27.0129 51.7788 25.8056C50.5844 17.5521 44.7111 10.6176 36.7455 8.04831C35.3405 7.59289 33.8454 7.27925 32.1698 7.09021C31.7573 7.04724 28.9173 6.99998 28.5607 7.03435ZM37.5575 20.3276C37.7637 20.4307 37.9313 20.6283 37.9915 20.8346C38.0258 20.9463 38.0344 23.3351 38.0258 28.7186L38.0129 36.4436L36.651 34.3555L35.2847 32.2674V26.652C35.2847 23.0215 35.3019 20.9806 35.3277 20.8818C35.3964 20.6412 35.5468 20.4522 35.753 20.3405C35.9292 20.2502 35.9936 20.2417 36.6682 20.2417C37.304 20.2417 37.4157 20.2502 37.5575 20.3276Z" fill="black"/>
<path d="M41.6992 47.6144C41.5488 47.7089 41.5016 47.7734 41.6347 47.7003C41.7293 47.6445 41.8839 47.5285 41.8582 47.5242C41.8453 47.5242 41.7722 47.5671 41.6992 47.6144ZM41.4027 47.8077C41.3254 47.8679 41.3254 47.8722 41.4199 47.8249C41.4715 47.7991 41.5144 47.7691 41.5144 47.7605C41.5144 47.7261 41.493 47.7347 41.4027 47.8077ZM41.1879 47.9366C41.1106 47.9968 41.1106 48.0011 41.2051 47.9538C41.2567 47.928 41.2996 47.898 41.2996 47.8894C41.2996 47.855 41.2781 47.8636 41.1879 47.9366ZM40.9731 48.0655C40.8958 48.1257 40.8958 48.13 40.9903 48.0827C41.0418 48.0569 41.0848 48.0269 41.0848 48.0183C41.0848 47.9839 41.0633 47.9925 40.9731 48.0655ZM40.6466 48.2374C40.4833 48.3233 40.4919 48.3577 40.6552 48.276C40.7282 48.2374 40.784 48.1987 40.784 48.1901C40.784 48.16 40.7797 48.1643 40.6466 48.2374Z" fill="black"/>
</g>
<defs>
<clipPath id="clip0_1253_81">
<rect width="44" height="44" fill="white" transform="translate(8 7)"/>
</clipPath>
</defs>
</svg>
