<svg width="59" height="59" viewBox="0 0 59 59" fill="none" xmlns="http://www.w3.org/2000/svg">
<rect width="59" height="59" rx="5" fill="#04442E"/>
<path d="M42.8358 20.2945L30.778 13.2931C30.0176 12.86 29.0275 12.86 28.2611 13.2931L16.0745 20.2945C15.2897 20.7459 14.7344 21.5944 14.7344 22.5019V36.4861C14.7344 37.3936 15.3042 38.2424 16.089 38.6963L19.3087 40.525C20.8476 41.283 21.3915 41.283 22.0918 41.283C24.3703 41.283 25.6719 39.9051 25.6719 37.5019V23.696C25.6719 23.5011 25.5704 23.211 25.379 23.211H23.8415C23.6468 23.211 23.2109 23.5011 23.2109 23.6958V37.5016C23.2109 38.5669 22.2473 39.6271 20.4465 38.7266L17.1196 36.809C17.0036 36.7461 16.9219 36.6195 16.9219 36.4861V22.5019C16.9219 22.3701 17.0736 22.2378 17.1904 22.1703L29.3376 15.1809C29.4511 15.1167 29.6179 15.1167 29.7311 15.1809L41.73 22.1686C41.8449 22.2378 41.8044 22.366 41.8044 22.5019V36.4861C41.8044 36.6195 41.8545 36.7494 41.741 36.8137L29.6862 43.8071C29.5829 43.8692 29.4546 43.8692 29.3414 43.8071L26.2496 41.9617C26.1564 41.9075 26.0457 41.8881 25.9563 41.9381C25.096 42.4257 24.9374 42.4905 24.1305 42.7702C23.932 42.8394 23.6391 42.9594 24.2426 43.2977L28.2889 45.6913C28.6764 45.9156 29.1166 46.0321 29.5596 46.0321C30.0086 46.0321 30.4483 45.9156 30.8357 45.6913L42.8355 38.6963C43.6203 38.2391 43.9922 37.3936 43.9922 36.4861V22.5019C43.9922 21.5944 43.6203 20.7481 42.8358 20.2945ZM33.3035 34.2701C30.0972 34.2701 29.3909 33.3856 29.1555 31.7912C29.1281 31.6194 28.9824 31.4141 28.8077 31.4141H27.2406C27.0467 31.4141 26.8909 31.6492 26.8909 31.8423C26.8909 33.8838 28.0007 36.3573 33.3038 36.3573C37.1426 36.3573 39.3435 34.8657 39.3435 32.2259C39.3435 29.6086 37.5752 28.9217 33.8523 28.429C30.0893 27.9316 29.707 27.6803 29.707 26.7987C29.707 26.0719 30.0307 25.1026 32.8171 25.1026C35.3067 25.1026 36.2244 25.6369 36.602 27.315C36.6343 27.4728 36.7784 27.586 36.9411 27.586H38.5144C38.6112 27.586 38.7036 27.5469 38.7714 27.4777C38.8371 27.4033 38.8718 27.3101 38.863 27.21C38.6194 24.3203 36.6996 22.9736 32.8168 22.9736C29.363 22.9736 27.3027 24.4321 27.3027 26.8769C27.3027 29.5287 29.3526 30.2615 32.668 30.5894C36.6343 30.9782 36.9427 31.5579 36.9427 32.338C36.9427 33.6929 35.855 34.2701 33.3035 34.2701Z" fill="#83CD29"/>
</svg>
