<svg width="35" height="35" viewBox="0 0 35 35" fill="none" xmlns="http://www.w3.org/2000/svg">
<path d="M30.8358 8.29447L18.778 1.29311C18.0176 0.85998 17.0275 0.85998 16.2611 1.29311L4.07449 8.29447C3.28973 8.74592 2.73438 9.59439 2.73438 10.5019V24.4861C2.73438 25.3936 3.30422 26.2424 4.08898 26.6963L7.30871 28.525C8.84762 29.283 9.39148 29.283 10.0918 29.283C12.3703 29.283 13.6719 27.9051 13.6719 25.5019V11.696C13.6719 11.5011 13.5704 11.211 13.379 11.211H11.8415C11.6468 11.211 11.2109 11.5011 11.2109 11.6958V25.5016C11.2109 26.5669 10.2473 27.6271 8.44648 26.7266L5.11957 24.809C5.00363 24.7461 4.92188 24.6195 4.92188 24.4861V10.5019C4.92188 10.3701 5.07363 10.2378 5.19039 10.1703L17.3376 3.18092C17.4511 3.11666 17.6179 3.11666 17.7311 3.18092L29.73 10.1686C29.8449 10.2378 29.8044 10.366 29.8044 10.5019V24.4861C29.8044 24.6195 29.8545 24.7494 29.741 24.8137L17.6862 31.8071C17.5829 31.8692 17.4546 31.8692 17.3414 31.8071L14.2496 29.9617C14.1564 29.9075 14.0457 29.8881 13.9563 29.9381C13.096 30.4257 12.9374 30.4905 12.1305 30.7702C11.932 30.8394 11.6391 30.9594 12.2426 31.2977L16.2889 33.6913C16.6764 33.9156 17.1166 34.0321 17.5596 34.0321C18.0086 34.0321 18.4483 33.9156 18.8357 33.6913L30.8355 26.6963C31.6203 26.2391 31.9922 25.3936 31.9922 24.4861V10.5019C31.9922 9.59439 31.6203 8.74811 30.8358 8.29447ZM21.3035 22.2701C18.0972 22.2701 17.3909 21.3856 17.1555 19.7912C17.1281 19.6194 16.9824 19.4141 16.8077 19.4141H15.2406C15.0467 19.4141 14.8909 19.6492 14.8909 19.8423C14.8909 21.8838 16.0007 24.3573 21.3038 24.3573C25.1426 24.3573 27.3435 22.8657 27.3435 20.2259C27.3435 17.6086 25.5752 16.9217 21.8523 16.429C18.0893 15.9316 17.707 15.6803 17.707 14.7987C17.707 14.0719 18.0307 13.1026 20.8171 13.1026C23.3067 13.1026 24.2244 13.6369 24.602 15.315C24.6343 15.4728 24.7784 15.586 24.9411 15.586H26.5144C26.6112 15.586 26.7036 15.5469 26.7714 15.4777C26.8371 15.4033 26.8718 15.3101 26.863 15.21C26.6194 12.3203 24.6996 10.9736 20.8168 10.9736C17.363 10.9736 15.3027 12.4321 15.3027 14.8769C15.3027 17.5287 17.3526 18.2615 20.668 18.5894C24.6343 18.9782 24.9427 19.5579 24.9427 20.338C24.9427 21.6929 23.855 22.2701 21.3035 22.2701Z" fill="#83CD29"/>
</svg>
