<svg width="38" height="35" viewBox="0 0 38 35" fill="none" xmlns="http://www.w3.org/2000/svg">
<path d="M19.5 20C20.8807 20 22 18.8807 22 17.5C22 16.1193 20.8807 15 19.5 15C18.1193 15 17 16.1193 17 17.5C17 18.8807 18.1193 20 19.5 20Z" fill="#00DBFC"/>
<path d="M33.4348 15.2231C32.4755 14.4022 31.1124 13.684 29.4968 13.1196C29.1938 13.017 28.8404 12.9143 28.487 12.8117C28.5375 12.5552 28.5879 12.35 28.6385 12.0935C29.3958 8.29684 28.8404 5.32112 27.2247 4.34631C26.417 3.88456 25.3062 3.88456 24.044 4.34631C22.8828 4.80806 21.57 5.62895 20.3078 6.75768C20.0554 6.9629 19.8029 7.21942 19.5505 7.47596C19.399 7.32204 19.1971 7.16812 19.0456 7.01421C16.2182 4.44893 13.3909 3.42281 11.7247 4.39762C10.917 4.85937 10.3616 5.83418 10.1091 7.21942C9.90717 8.45076 9.95765 10.0412 10.3111 11.7343C10.3616 12.0935 10.4625 12.4013 10.5635 12.7604C10.1596 12.863 9.7557 13.017 9.40228 13.1196C6.01954 14.2996 4 16.1466 4 17.9936C4 18.9684 4.55537 19.9945 5.61563 20.8667C6.62541 21.7389 8.03909 22.5085 9.65472 23.0728C9.90717 23.1755 10.2101 23.2781 10.513 23.3293C10.4121 23.6885 10.3616 24.099 10.2606 24.4581C9.60423 27.9982 10.1596 30.7174 11.7247 31.6409C12.1287 31.8974 12.6336 32 13.1889 32C13.7443 32 14.3502 31.8974 15.0065 31.6409C16.2687 31.1791 17.5814 30.3582 18.8941 29.1782C19.0961 28.973 19.3486 28.7678 19.5505 28.5625C19.8534 28.8191 20.1059 29.0756 20.4088 29.3321C22.3779 31.0765 24.2964 32 25.8111 32C26.3664 32 26.8713 31.8974 27.2753 31.6409C28.083 31.1278 28.6889 30.153 28.9413 28.7678C29.1938 27.4338 29.1433 25.8434 28.7899 24.099C28.7394 23.8425 28.6889 23.5346 28.5879 23.2781C28.7899 23.2268 28.9919 23.1755 29.1433 23.0728C32.7785 21.8415 35 19.8919 35 17.9423C35 17.0701 34.4446 16.0953 33.4348 15.2231ZM24.4984 5.62895C25.4071 5.32112 26.114 5.26981 26.5684 5.52634C27.4772 6.0394 28.083 8.24554 27.3762 11.8369C27.3257 12.0422 27.2753 12.2474 27.2247 12.4526C25.9121 12.1447 24.5488 11.9395 23.0847 11.7856C22.2264 10.5543 21.3681 9.42556 20.4593 8.45076C20.7117 8.19423 20.9137 7.98901 21.1662 7.78378C22.3273 6.75768 23.4886 6.0394 24.4984 5.62895ZM23.842 20.6102C23.3371 21.4824 22.8828 22.3033 22.3779 23.0215C21.469 23.0728 20.5097 23.1242 19.5505 23.1242C18.5912 23.1242 17.632 23.0728 16.7231 23.0215C16.2182 22.252 15.6629 21.4311 15.2085 20.5589C14.7036 19.738 14.2997 18.8658 13.8958 17.9936C14.2997 17.1214 14.7541 16.3005 15.2085 15.4796C15.7134 14.6588 16.2182 13.8378 16.7231 13.017C17.632 12.9657 18.5912 12.9143 19.5505 12.9143C20.5097 12.9143 21.469 12.9657 22.3779 13.017C22.8828 13.7865 23.3876 14.6074 23.8925 15.4283C24.3974 16.3005 24.8518 17.1214 25.2557 17.9423C24.7508 18.8658 24.3469 19.738 23.842 20.6102ZM25.8616 19.5841C26.2655 20.5589 26.6189 21.4824 26.9218 22.3545C26.013 22.5598 25.0537 22.7137 24.044 22.8677C24.3469 22.3545 24.7003 21.7902 25.0033 21.2772C25.3062 20.7128 25.6091 20.1484 25.8616 19.5841ZM19.5505 26.7155C18.9446 26.0486 18.2883 25.279 17.6824 24.4581C18.2883 24.4581 18.8941 24.5094 19.5 24.5094C20.1563 24.5094 20.7622 24.5094 21.368 24.4581C20.7622 25.279 20.1563 26.0486 19.5505 26.7155ZM15.0065 22.8677C13.9968 22.765 13.0375 22.6111 12.1287 22.4059C12.3811 21.4824 12.7345 20.5589 13.1385 19.6354C13.4413 20.1997 13.6938 20.7128 13.9968 21.2772C14.3502 21.8415 14.6531 22.3545 15.0065 22.8677ZM14.0472 14.8126C13.7443 15.377 13.4413 15.8901 13.1889 16.4544C12.785 15.5309 12.4821 14.6074 12.1792 13.7353C13.0879 13.53 13.9968 13.3761 15.0065 13.2222C14.6531 13.7353 14.3502 14.2996 14.0472 14.8126ZM19.5 9.42556C20.1059 10.0925 20.7117 10.8621 21.3176 11.683C20.7117 11.6317 20.1059 11.6317 19.4495 11.6317C18.8437 11.6317 18.2378 11.6317 17.632 11.683C18.2883 10.8621 18.8941 10.0925 19.5 9.42556ZM24.9528 14.8126C24.6498 14.2483 24.3469 13.7353 23.9935 13.2222C25.0033 13.3248 25.9121 13.53 26.8209 13.7353C26.5684 14.6074 26.215 15.5309 25.8111 16.4544C25.6091 15.9414 25.3062 15.377 24.9528 14.8126ZM11.5733 11.4778C11.2704 9.93862 11.2199 8.55337 11.4218 7.47596C11.5733 6.55246 11.9267 5.88548 12.3811 5.57765C13.2899 5.06459 15.4609 5.57765 18.1368 8.04031C18.2883 8.19423 18.4397 8.34815 18.5912 8.50206C17.6824 9.47687 16.8241 10.6056 15.9658 11.8369C14.5016 11.9909 13.0879 12.196 11.8257 12.5039C11.7247 12.0935 11.6743 11.7856 11.5733 11.4778ZM10.1091 21.8415C6.82736 20.7128 5.3127 19.071 5.3127 17.9936C5.3127 16.9675 6.72638 15.4796 9.80619 14.4022C10.1596 14.2996 10.513 14.1456 10.8664 14.0431C11.2704 15.3257 11.7753 16.6597 12.3811 18.0449C11.7753 19.4301 11.2199 20.7641 10.8664 22.098C10.614 21.9954 10.3616 21.9441 10.1091 21.8415ZM13.1889 30.7174C12.8355 30.7174 12.583 30.6661 12.3811 30.5121C11.5228 29.9991 10.917 28.0495 11.5733 24.7659C11.6238 24.4068 11.7247 24.099 11.7753 23.7398C13.0375 24.0476 14.4512 24.2529 15.9658 24.3555C16.8241 25.5868 17.7329 26.7155 18.6417 27.6903C18.4397 27.8956 18.2378 28.0495 18.0358 28.2547C16.0668 29.9991 14.2997 30.7174 13.1889 30.7174ZM27.4772 24.4068C28.1336 27.8443 27.4772 29.9991 26.6189 30.5121C25.7606 31.0252 23.7915 30.5634 21.3176 28.3573C21.0652 28.1521 20.8127 27.8956 20.5603 27.639C21.4186 26.6642 22.3273 25.5355 23.1857 24.3042C24.7003 24.1503 26.114 23.945 27.3762 23.6372C27.3762 23.8938 27.4267 24.1503 27.4772 24.4068ZM28.7394 21.8415C28.5879 21.8928 28.386 21.9441 28.2345 21.9954C27.8306 20.7641 27.3257 19.3788 26.6694 17.9936C27.2753 16.6597 27.7801 15.3257 28.184 14.0431C28.487 14.1456 28.7899 14.2483 29.0928 14.3509C30.557 14.8639 31.7687 15.5309 32.5765 16.1979C33.2834 16.8135 33.6873 17.4292 33.6873 17.9936C33.6873 19.071 32.1221 20.7128 28.7394 21.8415Z" fill="#00DBFC"/>
</svg>
