<svg width="59" height="59" viewBox="0 0 59 59" fill="none" xmlns="http://www.w3.org/2000/svg">
<rect width="59" height="59" rx="5" fill="#383A3B"/>
<path d="M30.5 32C31.8807 32 33 30.8807 33 29.5C33 28.1193 31.8807 27 30.5 27C29.1193 27 28 28.1193 28 29.5C28 30.8807 29.1193 32 30.5 32Z" fill="#00DBFC"/>
<path d="M44.4348 27.2231C43.4755 26.4022 42.1124 25.684 40.4968 25.1196C40.1938 25.017 39.8404 24.9143 39.487 24.8117C39.5375 24.5552 39.5879 24.35 39.6385 24.0935C40.3958 20.2968 39.8404 17.3211 38.2247 16.3463C37.417 15.8846 36.3062 15.8846 35.044 16.3463C33.8828 16.8081 32.57 17.629 31.3078 18.7577C31.0554 18.9629 30.8029 19.2194 30.5505 19.476C30.399 19.322 30.1971 19.1681 30.0456 19.0142C27.2182 16.4489 24.3909 15.4228 22.7247 16.3976C21.917 16.8594 21.3616 17.8342 21.1091 19.2194C20.9072 20.4508 20.9577 22.0412 21.3111 23.7343C21.3616 24.0935 21.4625 24.4013 21.5635 24.7604C21.1596 24.863 20.7557 25.017 20.4023 25.1196C17.0195 26.2996 15 28.1466 15 29.9936C15 30.9684 15.5554 31.9945 16.6156 32.8667C17.6254 33.7389 19.0391 34.5085 20.6547 35.0728C20.9072 35.1755 21.2101 35.2781 21.513 35.3293C21.4121 35.6885 21.3616 36.099 21.2606 36.4581C20.6042 39.9982 21.1596 42.7174 22.7247 43.6409C23.1287 43.8974 23.6336 44 24.1889 44C24.7443 44 25.3502 43.8974 26.0065 43.6409C27.2687 43.1791 28.5814 42.3582 29.8941 41.1782C30.0961 40.973 30.3486 40.7678 30.5505 40.5625C30.8534 40.8191 31.1059 41.0756 31.4088 41.3321C33.3779 43.0765 35.2964 44 36.8111 44C37.3664 44 37.8713 43.8974 38.2753 43.6409C39.083 43.1278 39.6889 42.153 39.9413 40.7678C40.1938 39.4338 40.1433 37.8434 39.7899 36.099C39.7394 35.8425 39.6889 35.5346 39.5879 35.2781C39.7899 35.2268 39.9919 35.1755 40.1433 35.0728C43.7785 33.8415 46 31.8919 46 29.9423C46 29.0701 45.4446 28.0953 44.4348 27.2231ZM35.4984 17.629C36.4071 17.3211 37.114 17.2698 37.5684 17.5263C38.4772 18.0394 39.083 20.2455 38.3762 23.8369C38.3257 24.0422 38.2753 24.2474 38.2247 24.4526C36.9121 24.1447 35.5488 23.9395 34.0847 23.7856C33.2264 22.5543 32.3681 21.4256 31.4593 20.4508C31.7117 20.1942 31.9137 19.989 32.1662 19.7838C33.3273 18.7577 34.4886 18.0394 35.4984 17.629ZM34.842 32.6102C34.3371 33.4824 33.8828 34.3033 33.3779 35.0215C32.469 35.0728 31.5097 35.1242 30.5505 35.1242C29.5912 35.1242 28.632 35.0728 27.7231 35.0215C27.2182 34.252 26.6629 33.4311 26.2085 32.5589C25.7036 31.738 25.2997 30.8658 24.8958 29.9936C25.2997 29.1214 25.7541 28.3005 26.2085 27.4796C26.7134 26.6588 27.2182 25.8378 27.7231 25.017C28.632 24.9657 29.5912 24.9143 30.5505 24.9143C31.5097 24.9143 32.469 24.9657 33.3779 25.017C33.8828 25.7865 34.3876 26.6074 34.8925 27.4283C35.3974 28.3005 35.8518 29.1214 36.2557 29.9423C35.7508 30.8658 35.3469 31.738 34.842 32.6102ZM36.8616 31.5841C37.2655 32.5589 37.6189 33.4824 37.9218 34.3545C37.013 34.5598 36.0537 34.7137 35.044 34.8677C35.3469 34.3545 35.7003 33.7902 36.0033 33.2772C36.3062 32.7128 36.6091 32.1484 36.8616 31.5841ZM30.5505 38.7155C29.9446 38.0486 29.2883 37.279 28.6824 36.4581C29.2883 36.4581 29.8941 36.5094 30.5 36.5094C31.1563 36.5094 31.7622 36.5094 32.368 36.4581C31.7622 37.279 31.1563 38.0486 30.5505 38.7155ZM26.0065 34.8677C24.9968 34.765 24.0375 34.6111 23.1287 34.4059C23.3811 33.4824 23.7345 32.5589 24.1385 31.6354C24.4413 32.1997 24.6938 32.7128 24.9968 33.2772C25.3502 33.8415 25.6531 34.3545 26.0065 34.8677ZM25.0472 26.8126C24.7443 27.377 24.4413 27.8901 24.1889 28.4544C23.785 27.5309 23.4821 26.6074 23.1792 25.7353C24.0879 25.53 24.9968 25.3761 26.0065 25.2222C25.6531 25.7353 25.3502 26.2996 25.0472 26.8126ZM30.5 21.4256C31.1059 22.0925 31.7117 22.8621 32.3176 23.683C31.7117 23.6317 31.1059 23.6317 30.4495 23.6317C29.8437 23.6317 29.2378 23.6317 28.632 23.683C29.2883 22.8621 29.8941 22.0925 30.5 21.4256ZM35.9528 26.8126C35.6498 26.2483 35.3469 25.7353 34.9935 25.2222C36.0033 25.3248 36.9121 25.53 37.8209 25.7353C37.5684 26.6074 37.215 27.5309 36.8111 28.4544C36.6091 27.9414 36.3062 27.377 35.9528 26.8126ZM22.5733 23.4778C22.2704 21.9386 22.2199 20.5534 22.4218 19.476C22.5733 18.5525 22.9267 17.8855 23.3811 17.5776C24.2899 17.0646 26.4609 17.5776 29.1368 20.0403C29.2883 20.1942 29.4397 20.3481 29.5912 20.5021C28.6824 21.4769 27.8241 22.6056 26.9658 23.8369C25.5016 23.9909 24.0879 24.196 22.8257 24.5039C22.7247 24.0935 22.6743 23.7856 22.5733 23.4778ZM21.1091 33.8415C17.8274 32.7128 16.3127 31.071 16.3127 29.9936C16.3127 28.9675 17.7264 27.4796 20.8062 26.4022C21.1596 26.2996 21.513 26.1456 21.8664 26.0431C22.2704 27.3257 22.7753 28.6597 23.3811 30.0449C22.7753 31.4301 22.2199 32.7641 21.8664 34.098C21.614 33.9954 21.3616 33.9441 21.1091 33.8415ZM24.1889 42.7174C23.8355 42.7174 23.583 42.6661 23.3811 42.5121C22.5228 41.9991 21.917 40.0495 22.5733 36.7659C22.6238 36.4068 22.7247 36.099 22.7753 35.7398C24.0375 36.0476 25.4512 36.2529 26.9658 36.3555C27.8241 37.5868 28.7329 38.7155 29.6417 39.6903C29.4397 39.8956 29.2378 40.0495 29.0358 40.2547C27.0668 41.9991 25.2997 42.7174 24.1889 42.7174ZM38.4772 36.4068C39.1336 39.8443 38.4772 41.9991 37.6189 42.5121C36.7606 43.0252 34.7915 42.5634 32.3176 40.3573C32.0652 40.1521 31.8127 39.8956 31.5603 39.639C32.4186 38.6642 33.3273 37.5355 34.1857 36.3042C35.7003 36.1503 37.114 35.945 38.3762 35.6372C38.3762 35.8938 38.4267 36.1503 38.4772 36.4068ZM39.7394 33.8415C39.5879 33.8928 39.386 33.9441 39.2345 33.9954C38.8306 32.7641 38.3257 31.3788 37.6694 29.9936C38.2753 28.6597 38.7801 27.3257 39.184 26.0431C39.487 26.1456 39.7899 26.2483 40.0928 26.3509C41.557 26.8639 42.7687 27.5309 43.5765 28.1979C44.2834 28.8135 44.6873 29.4292 44.6873 29.9936C44.6873 31.071 43.1221 32.7128 39.7394 33.8415Z" fill="#00DBFC"/>
</svg>
