<svg width="43" height="41" viewBox="0 0 43 41" fill="none" xmlns="http://www.w3.org/2000/svg">
<path d="M29.6954 28.6341C31.277 28.4691 32.4768 27.0952 32.4223 25.4462C32.3678 23.7976 31.0043 22.4786 29.3681 22.4786H29.2591C27.5683 22.5335 26.2596 23.9625 26.3141 25.6662C26.3687 26.4905 26.6958 27.205 27.1867 27.6996C25.3324 31.382 22.4964 34.075 18.2426 36.3283C15.352 37.8672 12.3526 38.4169 9.35306 38.0322C6.89882 37.7024 4.99001 36.6033 3.79001 34.7894C2.04491 32.0964 1.88135 29.1835 3.3539 26.2708C4.39017 24.1822 6.02611 22.6433 7.06238 21.8738C6.84425 21.1594 6.51695 19.9503 6.35339 19.071C-1.55458 24.8418 -0.736442 32.6461 1.66323 36.3283C3.46288 39.0764 7.11695 40.7802 11.1527 40.7802C12.2434 40.7802 13.3341 40.6701 14.425 40.3955C21.4058 39.0215 26.696 34.8444 29.6954 28.6341ZM39.2941 21.819C35.1493 16.9276 29.041 14.2346 22.0601 14.2346H21.1877C20.6968 13.2454 19.6606 12.5857 18.5153 12.5857H18.4061C16.7156 12.6408 15.4068 14.0696 15.4613 15.7734C15.5158 17.4222 16.8791 18.7413 18.5153 18.7413H18.6243C19.8241 18.6864 20.8604 17.9169 21.2967 16.8725H22.2783C26.4233 16.8725 30.3498 18.0816 33.895 20.445C36.6217 22.2586 38.5851 24.622 39.6758 27.4798C40.603 29.7881 40.5484 32.0415 39.5667 33.9651C38.0397 36.8779 35.4765 38.4718 32.0951 38.4718C29.9136 38.4718 27.8413 37.8123 26.7504 37.3176C26.1506 37.8672 25.0597 38.7465 24.2961 39.2963C26.6414 40.3954 29.041 41 31.3315 41C36.5671 41 40.4394 38.087 41.912 35.1742C43.4934 31.9864 43.3843 26.4905 39.2941 21.819ZM11.589 29.5682C11.6436 31.217 13.007 32.5358 14.6431 32.5358H14.7523C16.4428 32.4811 17.7517 31.0521 17.6971 29.3484C17.6427 27.6995 16.2791 26.3806 14.6431 26.3806H14.5341C14.425 26.3806 14.2613 26.3806 14.1524 26.4353C11.9163 22.6982 10.9892 18.6313 11.3164 14.2345C11.5344 10.9369 12.6253 8.0789 14.5341 5.71557C16.1156 3.68205 19.1697 2.69279 21.2423 2.63797C27.0231 2.52797 29.4771 9.78261 29.6408 12.6955C30.3498 12.8604 31.5497 13.2452 32.3678 13.5201C31.7133 4.61665 26.2596 0 21.0241 0C16.1156 0 11.589 3.5724 9.78916 8.84851C7.28052 15.8833 8.91662 22.6433 11.9707 27.9745C11.6981 28.3591 11.5344 28.9636 11.589 29.5682Z" fill="#764ABC"/>
</svg>
